<?xml version="1.0" encoding="utf-8"?>
<!-- Generator: Adobe Illustrator 19.1.0, SVG Export Plug-In . SVG Version: 6.00 Build 0)  -->
<svg version="1.1" id="Layer_1" xmlns="http://www.w3.org/2000/svg" xmlns:xlink="http://www.w3.org/1999/xlink" x="0px" y="0px"
	 viewBox="0 0 96.1 192" style="enable-background:new 0 0 96.1 192;" xml:space="preserve">
<style type="text/css">
	.st0{fill:#0078ef;}
</style>
<path class="st0" d="M2.3,189.7c-2.2-2.2-2.3-4.8-2.3-5.6c0-2,0.8-4.1,2.3-5.7l66.3-74.3c0,0,0-0.1,0-0.1c3.1-2.7,6.2-5.3,9.3-8
	c0.1,0.1,0.1,0.1,0.2,0.2c-0.2-0.2-0.2-0.2-0.2-0.2c-3.1-2.7-6.2-5.3-9.3-8c0.1,0,0.1-0.1,0-0.1L2.4,13.6c-2.9-3.4-3.2-8.1-0.1-11.2
	c3.1-3.1,8.5-3.3,11.4-0.1c0,0,79.2,87,80,88s2.4,2.8,2.4,5.7s-1.6,4.9-2.4,5.7s-80,88-80,88c-0.4,0.4-2.5,2.3-5.7,2.3
	C7.2,192,4.5,191.9,2.3,189.7z"/>
</svg>
