<?xml version="1.0" encoding="utf-8"?>
<!-- Generator: Adobe Illustrator 19.1.0, SVG Export Plug-In . SVG Version: 6.00 Build 0)  -->
<svg version="1.1" id="Layer_1" xmlns="http://www.w3.org/2000/svg" xmlns:xlink="http://www.w3.org/1999/xlink" x="0px" y="0px"
	 viewBox="0 0 320 192" style="enable-background:new 0 0 320 192;" xml:space="preserve">
<style type="text/css">
	.st0 {
		fill: #0078ef;
	}
</style>
<path class="st0 arrow-fill" d="M226.2,189.7c-3.1-3.1-3-8,0-11.3l66.4-74.4H8c-4.4,0-8-3.6-8-8s3.6-8,8-8h284.6l-66.3-74.4
	c-2.9-3.4-3.2-8.1-0.1-11.2c3.1-3.1,8.5-3.3,11.4-0.1c0,0,79.2,87,80,88s2.4,2.8,2.4,5.7s-1.6,4.9-2.4,5.7s-80,88-80,88
	c-1.5,1.5-3.6,2.3-5.7,2.3C229.8,192,227.8,191.2,226.2,189.7z"/>
</svg>
