<?xml version="1.0" encoding="utf-8"?>
<!-- Generator: Adobe Illustrator 19.1.0, SVG Export Plug-In . SVG Version: 6.00 Build 0)  -->
<!DOCTYPE svg PUBLIC "-//W3C//DTD SVG 1.1//EN" "http://www.w3.org/Graphics/SVG/1.1/DTD/svg11.dtd">
<svg version="1.1" id="Layer_1" xmlns="http://www.w3.org/2000/svg" xmlns:xlink="http://www.w3.org/1999/xlink" x="0px" y="0px"
	 viewBox="-253 165.5 283.5 283.5" style="enable-background:new -253 165.5 283.5 283.5;" xml:space="preserve">
<style type="text/css">
	.st0{fill:#FFED20;}
</style>
<g>
	<path class="st0" d="M-101.4,307.9l-3.7-82.5c-0.1-3.4-2.9-9.4-9.6-9.4c-6.6,0-9.3,6.1-9.6,9.4l-4.6,90.3c-0.1,2,0.3,4,1.1,5.7
		c0.1,3.3,1.2,6.4,3.7,8.6l56.8,50.4c2.6,2.3,9.1,4.3,14.4-1.1c5.4-5.4,3.2-11.8,1.1-14.4L-101.4,307.9z"/>
	<path class="st0" d="M-111.2,165.5c-78.2,0-141.7,63.6-141.7,141.7c0,78.2,63.6,141.8,141.7,141.8c78.2,0,141.7-63.6,141.7-141.7
		S-33,165.5-111.2,165.5z M-111.2,428.1c-66.6,0-120.8-54.2-120.8-120.8s54.2-120.8,120.8-120.8S9.6,240.7,9.6,307.3
		C9.7,373.9-44.5,428.1-111.2,428.1z"/>
</g>
</svg>
