<?xml version="1.0" encoding="utf-8"?>
<!-- Generator: Adobe Illustrator 19.1.0, SVG Export Plug-In . SVG Version: 6.00 Build 0)  -->
<!DOCTYPE svg PUBLIC "-//W3C//DTD SVG 1.1//EN" "http://www.w3.org/Graphics/SVG/1.1/DTD/svg11.dtd">
<svg version="1.1" id="Layer_1" xmlns="http://www.w3.org/2000/svg" xmlns:xlink="http://www.w3.org/1999/xlink" x="0px" y="0px"
	 viewBox="22 -12 90 90" style="enable-background:new 22 -12 90 90;" xml:space="preserve">
<style type="text/css">
	.st0{fill:#0276EE;}
</style>
<path class="st0" d="M44.5,34.3h17.6l0.8,1.1l-6.8,6.8c-0.5,0.5-0.5,1.3,0,1.8c0.2,0.2,0.6,0.4,0.9,0.4s0.6-0.1,0.9-0.4l6.8-6.8
	l1.1,0.8v17.6c0,0.7,0.6,1.3,1.3,1.3s1.3-0.6,1.3-1.3V39.7l13,9.3c0.2,0.2,0.5,0.2,0.7,0.2c0.3,0,0.6-0.1,0.9-0.4
	c0.4-0.4,0.5-1.1,0.1-1.6l-9.3-13h15.8c0.7,0,1.3-0.6,1.3-1.3s-0.6-1.3-1.3-1.3H71.9l-0.8-1.1l6.8-6.8c0.5-0.5,0.5-1.3,0-1.8
	s-1.3-0.5-1.8,0l-6.8,6.8l-1.1-0.8V10.5c0-0.7-0.6-1.3-1.3-1.3c-0.7,0-1.3,0.6-1.3,1.3v15.8l-13-9.3c-0.5-0.4-1.2-0.3-1.6,0.1
	c-0.4,0.4-0.5,1.1-0.1,1.6l9.3,13H44.5c-0.7,0-1.3,0.6-1.3,1.3S43.8,34.3,44.5,34.3z M57.4,23.4l11.2,8l8,11.2l-11.2-8L57.4,23.4z"
	/>
<path class="st0" d="M67,78c24.8,0,45-20.2,45-45S91.8-12,67-12S22,8.2,22,33S42.2,78,67,78z M67-7c22.1,0,40,17.9,40,40
	S89.1,73,67,73S27,55.1,27,33S44.9-7,67-7z"/>
<path class="st0" d="M67,69.3c20,0,36.3-16.3,36.3-36.3S87-3.2,67-3.2S30.8,13,30.8,33S47,69.3,67,69.3z M67-0.7
	c18.6,0,33.8,15.1,33.8,33.8S85.6,66.8,67,66.8S33.3,51.6,33.3,33S48.4-0.7,67-0.7z"/>
</svg>
