<?xml version="1.0" encoding="utf-8"?>
<!-- Generator: Adobe Illustrator 19.1.0, SVG Export Plug-In . SVG Version: 6.00 Build 0)  -->
<!DOCTYPE svg PUBLIC "-//W3C//DTD SVG 1.1//EN" "http://www.w3.org/Graphics/SVG/1.1/DTD/svg11.dtd">
<svg version="1.1" id="Layer_1" xmlns="http://www.w3.org/2000/svg" xmlns:xlink="http://www.w3.org/1999/xlink" x="0px" y="0px"
	 viewBox="-345 266.8 100 81.2" style="enable-background:new -345 266.8 100 81.2;" xml:space="preserve">
<style type="text/css">
	.st0{fill:#FFED20;}
</style>
<path class="st0" d="M-258,266.8h-37h-37l-13,23.6l50,57.6l50-57.6L-258,266.8z M-261.4,273.2l7.6,13.8h-13.6L-261.4,273.2z
	 M-267.8,272.9l-5.5,12.6l-13.8-12.6H-267.8z M-280.7,287H-295h-14.3l14.3-13L-280.7,287z M-302.8,272.9l-13.8,12.6l-5.5-12.6
	H-302.8z M-328.6,273.2l6.1,13.8h-13.6L-328.6,273.2z M-334.7,293h14.8l15.1,34.4L-334.7,293z M-313.3,293h18.3h18.3l-18.3,41.8
	L-313.3,293z M-285.1,327.4L-270,293h14.8L-285.1,327.4z"/>
</svg>
