<?xml version="1.0" encoding="utf-8"?>
<!-- Generator: Adobe Illustrator 19.1.0, SVG Export Plug-In . SVG Version: 6.00 Build 0)  -->
<!DOCTYPE svg PUBLIC "-//W3C//DTD SVG 1.1//EN" "http://www.w3.org/Graphics/SVG/1.1/DTD/svg11.dtd">
<svg version="1.1" id="Layer_1" xmlns="http://www.w3.org/2000/svg" xmlns:xlink="http://www.w3.org/1999/xlink" x="0px" y="0px"
	 viewBox="-255 356.8 100 81.2" style="enable-background:new -255 356.8 100 81.2;" xml:space="preserve">
<style type="text/css">
	.st0{fill:#0276EE;}
</style>
<path class="st0" d="M-168,356.8h-37h-37l-13,23.6l50,57.6l50-57.6L-168,356.8z M-171.4,363.2l7.6,13.8h-13.6L-171.4,363.2z
	 M-177.8,362.9l-5.5,12.6l-13.8-12.6H-177.8z M-190.7,377H-205h-14.3l14.3-13L-190.7,377z M-212.8,362.9l-13.8,12.6l-5.5-12.6
	H-212.8z M-238.6,363.2l6.1,13.8h-13.6L-238.6,363.2z M-244.7,383h14.8l15.1,34.4L-244.7,383z M-223.3,383h18.3h18.3l-18.3,41.8
	L-223.3,383z M-195.1,417.4l15.1-34.4h14.8L-195.1,417.4z"/>
</svg>
