<?xml version="1.0" encoding="utf-8"?>
<!-- Generator: Adobe Illustrator 19.1.0, SVG Export Plug-In . SVG Version: 6.00 Build 0)  -->
<!DOCTYPE svg PUBLIC "-//W3C//DTD SVG 1.1//EN" "http://www.w3.org/Graphics/SVG/1.1/DTD/svg11.dtd">
<svg version="1.1" id="Layer_1" xmlns="http://www.w3.org/2000/svg" xmlns:xlink="http://www.w3.org/1999/xlink" x="0px" y="0px"
	 viewBox="-255 347 100 100" style="enable-background:new -255 347 100 100;" xml:space="preserve">
<style type="text/css">
	.st0{fill:#FFED20;}
</style>
<g>
	<path class="st0" d="M-205,347c-27.6,0-50,22.4-50,50s22.4,50,50,50s50-22.4,50-50S-177.4,347-205,347z M-170.8,368.4
		c-0.5,1.5-2.6,3-5.9,4.3c-1.3-3.1-2.9-6.1-4.7-8.8c-2.4-3.6-5.2-6.5-8.2-8.8C-182.2,357.8-175.7,362.4-170.8,368.4z M-179.1,373.6
		c-3.6,1.1-8.2,2.1-13.6,2.7c-0.5-4.2-1.2-8-2-11.5c-1.3-5.3-2.8-9.2-4.7-11.7C-190.9,355.5-183.6,363.1-179.1,373.6z M-205,352.4
		c4.2,0,7.8,9.8,9.6,24.2c-3,0.2-6.2,0.4-9.6,0.4s-6.6-0.1-9.6-0.4C-212.8,362.2-209.2,352.4-205,352.4z M-215.3,364.8
		c-0.8,3.4-1.5,7.3-2,11.5c-5.4-0.6-10-1.5-13.6-2.7c4.4-10.5,11.7-18.1,20.3-20.5C-212.4,355.6-214,359.5-215.3,364.8z
		 M-220.4,355.1c-3,2.3-5.8,5.2-8.2,8.8c-1.8,2.7-3.4,5.6-4.7,8.8c-3.3-1.3-5.3-2.8-5.9-4.3C-234.3,362.4-227.8,357.8-220.4,355.1z
		 M-235.1,430c2.3,0.9,5,1.6,7.9,2.2c2,2.6,4.3,4.9,6.7,6.7C-225.9,436.9-230.9,433.8-235.1,430z M-223,433c2.9,0.5,6,0.8,9.1,1
		c1,2.9,2.1,5.2,3.3,6.9C-215.2,439.6-219.4,436.9-223,433z M-205,441.6c-2.2,0-4.3-2.8-6-7.5c2,0.1,4,0.1,6,0.1c2,0,4,0,6-0.1
		C-200.7,438.9-202.8,441.6-205,441.6z M-196.1,434c3.2-0.2,6.2-0.6,9.1-1c-3.6,3.9-7.8,6.6-12.3,7.9
		C-198.2,439.2-197.1,436.9-196.1,434z M-189.6,438.9c2.4-1.8,4.6-4,6.6-6.6c3-0.6,5.6-1.4,7.9-2.2
		C-179.2,433.9-184.1,436.9-189.6,438.9z M-168.6,422.9L-168.6,422.9c-1.2,2.2-5.5,4.4-11.9,6.1c3.9-6.1,6.6-13.5,7.8-21.5
		c0.4-0.1,0.8-0.2,1.1-0.3c4.9-1.4,8.5-3.1,11-5C-161.5,409.8-164.4,416.9-168.6,422.9z M-165.7,402l-3.1,2
		c-0.3,0.2-4.1,2.7-9.6,4.8c0.9-0.2,1.9-0.4,2.8-0.6c-1.5,8.4-4.6,15.9-8.8,21.6c-3.2,0.6-6.9,1.1-10.9,1.5c0.2-0.7,0.4-1.3,0.5-2.1
		c1.2-5,2.1-10.9,2.6-17.3c-0.4,0-0.9,0-1.3,0h-1.4c-0.7,7.7-1.8,14.4-3.3,19.5c-2.2,0.1-4.5,0.2-6.9,0.2c-2.4,0-4.7-0.1-6.9-0.2
		c-1.5-5.1-2.6-11.8-3.3-19.5h-2.7c0.5,6.4,1.4,12.3,2.6,17.2c0.2,0.7,0.4,1.4,0.5,2.1c-4-0.3-7.6-0.8-10.8-1.4
		c-3.6-4.9-6.4-11.1-8.1-18.2c-1-0.1-1.9-0.2-2.8-0.3c1.4,6.5,3.8,12.5,7.1,17.6c-6.8-1.7-11.1-4.1-12.1-6.4l-0.1,0
		c-4.2-5.9-6.9-12.9-7.8-20.5c0.7,0.5,1.5,1,2.3,1.5c0.1-1,0.4-1.9,0.8-2.6c-1.6-1-2.8-2-3.4-3c0-0.3,0-0.7,0-1
		c0-9.9,3.2-19,8.6-26.4c1.3,1.7,3.6,3.3,6.7,4.5c-2.2,6-3.4,12.6-3.7,19.4c0.8-0.4,1.7-0.9,2.7-1.2c0.3-6.2,1.5-12.1,3.4-17.4
		c4,1.3,9,2.3,14.2,2.9c-0.5,4.3-0.7,8.9-0.9,13.7c0.9,0,1.8,0,2.7,0c0.1-4.7,0.4-9.3,0.8-13.5c3.3,0.3,6.6,0.4,9.9,0.4
		s6.7-0.1,9.9-0.4c0.2,2,0.4,4.1,0.5,6.2h2.7c-0.1-2.2-0.3-4.4-0.5-6.5c5.3-0.6,10.2-1.5,14.2-2.9c1.1,3.1,2,6.4,2.6,9.8h2.7
		c-0.6-3.7-1.6-7.3-2.8-10.7c3.1-1.2,5.4-2.8,6.7-4.5c5.4,7.4,8.6,16.5,8.6,26.4c0,0.3,0,0.7,0,1
		C-161.3,399.4-163.1,400.8-165.7,402z"/>
	<path class="st0" d="M-226,407.9c13.9,0,25.4,0,32.6,0c11.3,0,22.5-7.3,22.5-7.3l-3.6-0.8l3.7-9.9h-5.1l-9.3,8.5l-9.3-0.9l4.6-8.1
		h-6.5l-13.9,7.3c0,0-16.3-0.3-21.4,0.1c-5.4,0.4-7.4,4.2-7.4,4.2s-3.8,0.8-3.8,3C-243,406.2-238.4,407.9-226,407.9z"/>
</g>
</svg>
