<?xml version="1.0" encoding="utf-8"?>
<!-- Generator: Adobe Illustrator 19.1.0, SVG Export Plug-In . SVG Version: 6.00 Build 0)  -->
<!DOCTYPE svg PUBLIC "-//W3C//DTD SVG 1.1//EN" "http://www.w3.org/Graphics/SVG/1.1/DTD/svg11.dtd">
<svg version="1.1" id="Layer_1" xmlns="http://www.w3.org/2000/svg" xmlns:xlink="http://www.w3.org/1999/xlink" x="0px" y="0px"
	 viewBox="-255 347 100 100" style="enable-background:new -255 347 100 100;" xml:space="preserve">
<style type="text/css">
	.st0{fill:#0276EE;}
</style>
<g>
	<path class="st0" d="M-195.6,402.9c10.7,3.6,23.6,0.2,23.6,0.2l-3.2-1.9l6.6-8.2l-4.8-1.6l-11.5,5.1l-8.5-3.8l7-6.2l-6.2-2.1
		l-15.5,2.5c0,0-15.4-5.4-20.3-6.7c-5.2-1.3-8.4,1.7-8.4,1.7s-3.9-0.4-4.6,1.6c-0.7,2,3.1,5.1,14.9,9
		C-213.4,397-202.4,400.6-195.6,402.9z"/>
	<path class="st0" d="M-205,347c-27.6,0-50,22.4-50,50c0,27.6,22.4,50,50,50c27.6,0,50-22.4,50-50C-155,369.4-177.4,347-205,347z
		 M-174,429.6l-46.8-16.5c-0.8-0.3-1.6,0.1-1.9,0.9s0.1,1.6,0.9,1.9l45.2,15.9c-2.4,1.9-4.9,3.6-7.6,5.1l-24.7-8.7
		c-0.8-0.3-1.6,0.1-1.9,0.9s0.1,1.6,0.9,1.9l21.8,7.7c-5.2,2.1-10.9,3.3-16.9,3.3c-24.8,0-45-20.2-45-45s20.2-45,45-45
		s45,20.2,45,45c0,9.3-2.8,17.9-7.7,25.1l-61.7-21.8c-0.8-0.3-1.6,0.1-1.9,0.9c-0.3,0.8,0.1,1.6,0.9,1.9l60.8,21.5
		C-170.9,426.4-172.4,428-174,429.6z"/>
</g>
</svg>
