<?xml version="1.0" encoding="utf-8"?>
<!-- Generator: Adobe Illustrator 19.1.0, SVG Export Plug-In . SVG Version: 6.00 Build 0)  -->
<!DOCTYPE svg PUBLIC "-//W3C//DTD SVG 1.1//EN" "http://www.w3.org/Graphics/SVG/1.1/DTD/svg11.dtd">
<svg version="1.1" id="Isolation_Mode" xmlns="http://www.w3.org/2000/svg" xmlns:xlink="http://www.w3.org/1999/xlink" x="0px"
	 y="0px" viewBox="-365 276.6 60.4 60.4" style="enable-background:new -365 276.6 60.4 60.4;" xml:space="preserve">
<style type="text/css">
	.st0{fill:#FFED20;}
</style>
<path class="st0" d="M-334.8,276.6c-16.7,0-30.2,13.5-30.2,30.2s13.5,30.2,30.2,30.2s30.2-13.5,30.2-30.2S-318.1,276.6-334.8,276.6z
	 M-334.8,279.8c5.3,0,10.2,1.5,14.3,4.2l-8.9,8.9c-1.7-0.7-3.5-1.1-5.5-1.1s-3.8,0.4-5.5,1.1l-8.9-8.9
	C-345,281.3-340.1,279.8-334.8,279.8z M-322.8,306.8c0,6.6-5.4,12-12,12s-12-5.4-12-12s5.4-12,12-12S-322.8,300.2-322.8,306.8z
	 M-361.8,306.8c0-5.3,1.5-10.2,4.2-14.3l8.9,8.9c-0.7,1.7-1.1,3.5-1.1,5.5s0.4,3.8,1.1,5.5l-8.9,8.9
	C-360.3,317-361.8,312.1-361.8,306.8z M-334.8,333.8c-5.3,0-10.2-1.5-14.3-4.2l8.9-8.9c1.7,0.7,3.5,1.1,5.5,1.1s3.8-0.4,5.5-1.1
	l8.9,8.9C-324.6,332.3-329.5,333.8-334.8,333.8z M-312,321.1l-8.9-8.9c0.7-1.7,1.1-3.5,1.1-5.5s-0.4-3.8-1.1-5.5l8.9-8.9
	c2.6,4.2,4.2,9.1,4.2,14.3S-309.3,317-312,321.1z"/>
</svg>
