<?xml version="1.0" encoding="utf-8"?>
<!-- Generator: Adobe Illustrator 19.1.0, SVG Export Plug-In . SVG Version: 6.00 Build 0)  -->
<!DOCTYPE svg PUBLIC "-//W3C//DTD SVG 1.1//EN" "http://www.w3.org/Graphics/SVG/1.1/DTD/svg11.dtd">
<svg version="1.1" id="Isolation_Mode" xmlns="http://www.w3.org/2000/svg" xmlns:xlink="http://www.w3.org/1999/xlink" x="0px"
	 y="0px" viewBox="-235.2 366.8 60.3 60.3" style="enable-background:new -235.2 366.8 60.3 60.3;" xml:space="preserve">
<style type="text/css">
	.st0{fill:#0276EE;}
</style>
<path class="st0" d="M-205,366.8c-16.7,0-30.2,13.5-30.2,30.2c0,16.7,13.5,30.2,30.2,30.2s30.2-13.5,30.2-30.2
	C-174.8,380.3-188.3,366.8-205,366.8z M-205,370c5.3,0,10.2,1.5,14.3,4.2l-8.9,8.9c-1.7-0.7-3.5-1.1-5.5-1.1c-1.9,0-3.8,0.4-5.5,1.1
	l-8.9-8.9C-215.2,371.5-210.3,370-205,370z M-193,397c0,6.6-5.4,12-12,12c-6.6,0-12-5.4-12-12c0-6.6,5.4-12,12-12
	C-198.4,385-193,390.4-193,397z M-232,397c0-5.3,1.5-10.2,4.2-14.3l8.9,8.9c-0.7,1.7-1.1,3.5-1.1,5.5c0,1.9,0.4,3.8,1.1,5.5
	l-8.9,8.9C-230.5,407.2-232,402.3-232,397z M-205,424c-5.3,0-10.2-1.5-14.3-4.2l8.9-8.9c1.7,0.7,3.5,1.1,5.5,1.1
	c1.9,0,3.8-0.4,5.5-1.1l8.9,8.9C-194.8,422.5-199.7,424-205,424z M-182.2,411.3l-8.9-8.9c0.7-1.7,1.1-3.5,1.1-5.5
	c0-1.9-0.4-3.8-1.1-5.5l8.9-8.9c2.6,4.2,4.2,9.1,4.2,14.3C-178,402.3-179.5,407.2-182.2,411.3z"/>
</svg>
