<?xml version="1.0" encoding="utf-8"?>
<!-- Generator: Adobe Illustrator 19.1.0, SVG Export Plug-In . SVG Version: 6.00 Build 0)  -->
<!DOCTYPE svg PUBLIC "-//W3C//DTD SVG 1.1//EN" "http://www.w3.org/Graphics/SVG/1.1/DTD/svg11.dtd">
<svg version="1.1" id="Isolation_Mode" xmlns="http://www.w3.org/2000/svg" xmlns:xlink="http://www.w3.org/1999/xlink" x="0px"
	 y="0px" viewBox="38.8 4.8 56.3 56.3" style="enable-background:new 38.8 4.8 56.3 56.3;" xml:space="preserve">
<style type="text/css">
	.st0{fill:#0276EE;}
</style>
<path class="st0" d="M67,4.8C51.4,4.8,38.8,17.4,38.8,33c0,15.6,12.6,28.2,28.2,28.2S95.2,48.6,95.2,33C95.2,17.4,82.6,4.8,67,4.8z
	 M91.9,30.3c-2.2-1-4.4-1.8-6.6-2.4c0-0.1,0-0.1,0-0.2c0-2.1-1.7-3.8-3.8-3.8c-1.6,0-3,1-3.5,2.4c-2.4-0.3-4.8-0.5-7.1-0.5
	c0-0.4,0-0.9,0-1.3c-0.1-2.1-0.2-4.2-0.4-6.1c1.7-0.3,3-1.9,3-3.7c0-2.1-1.7-3.8-3.8-3.8c-0.1,0-0.2,0-0.4,0c-0.2-1.1-0.4-2.1-0.6-3
	C80.8,8.9,90.6,18.3,91.9,30.3z M67.2,8c0.2,1,0.5,2.1,0.7,3.5c-1.2,0.6-1.9,1.9-1.9,3.3c0,1.8,1.3,3.3,2.9,3.7
	c0.2,1.7,0.3,3.6,0.4,5.5c-4.6-6.1-10.3-9.8-17-11.1C56.4,9.8,61.5,8,67,8C67.1,8,67.1,8,67.2,8z M50.7,14c7.4,1,13.4,4.9,18.2,11.8
	c-4.5,0.1-8.6,0.7-12.1,1.4c-1,0.2-2,0.5-3,0.7c-0.6-1.2-1.9-2-3.3-2c-2.1,0-3.8,1.7-3.8,3.8c0,0.1,0,0.2,0,0.4
	c-1.9,0.7-3.5,1.3-4.7,1.9C42.3,24.8,45.6,18.4,50.7,14z M42,33.7c1.3-0.6,3.1-1.3,5.2-2.1c0.6,1.1,1.9,1.9,3.3,1.9
	c2.1,0,3.7-1.7,3.7-3.8c0-0.1,0-0.2,0-0.3c4.4-1.1,9.6-2,15.1-2.1c0,6.1-0.7,12.6-2.9,18.7c-0.2,0-0.4,0-0.6,0
	c-2.1,0-3.7,1.7-3.7,3.8c0,1.1,0.5,2.2,1.3,2.9c-0.9,1.6-1.9,3.1-3.1,4.5C50,54.3,42.3,44.9,42,33.7z M62,57.5c1-1.3,2-2.7,2.8-4.2
	c0.4,0.1,0.7,0.2,1.1,0.2c2.1,0,3.8-1.7,3.8-3.8c0-1.3-0.7-2.5-1.8-3.2c1.8-5.2,2.8-11.1,3-17.6c1.4,2.4,2.6,5.1,3.7,8.1
	c0.1,0.3,0.2,0.6,0.3,0.9c-1.2,0.6-1.9,1.9-1.9,3.3c0,2.1,1.7,3.8,3.7,3.8c0.1,0,0.2,0,0.2,0c1,4.1,1.5,7.7,1.8,10.1
	C75.2,56.9,71.2,58,67,58C65.3,58,63.6,57.8,62,57.5z M80.1,54.3c-0.3-2.4-0.8-5.8-1.8-9.7c1.2-0.6,2.1-1.9,2.1-3.3
	c0-2.1-1.7-3.8-3.8-3.8c-0.1,0-0.3,0-0.4,0c-0.1-0.3-0.2-0.6-0.3-0.9c-1.3-3.4-2.7-6.5-4.4-9.3c2,0,4.1,0.2,6.2,0.5
	c0.1,2,1.7,3.6,3.7,3.6c1.5,0,2.7-0.9,3.4-2.1c2.4,0.7,4.8,1.6,7.1,2.7c0,0.3,0,0.7,0,1C92,42,87.3,49.9,80.1,54.3z"/>
</svg>
