<?xml version="1.0" encoding="utf-8"?>
<!-- Generator: Adobe Illustrator 19.1.0, SVG Export Plug-In . SVG Version: 6.00 Build 0)  -->
<!DOCTYPE svg PUBLIC "-//W3C//DTD SVG 1.1//EN" "http://www.w3.org/Graphics/SVG/1.1/DTD/svg11.dtd">
<svg version="1.1" id="Layer_1" xmlns="http://www.w3.org/2000/svg" xmlns:xlink="http://www.w3.org/1999/xlink" x="0px" y="0px"
	 viewBox="-25 -50.4 164.2 164.2" style="enable-background:new -25 -50.4 164.2 164.2;" xml:space="preserve">
<style type="text/css">
	.st0{fill:#0276EE;}
</style>
<path class="st0" d="M57.1-50.4C11.8-50.4-25-13.5-25,31.7c0,45.3,36.8,82.1,82.1,82.1c45.3,0,82.1-36.8,82.1-82.1
	S102.4-50.4,57.1-50.4z M57.1,104.2c-40,0-72.5-32.5-72.5-72.5c0-40,32.5-72.5,72.5-72.5c40,0,72.5,32.5,72.5,72.5
	C129.6,71.7,97.1,104.2,57.1,104.2z"/>
<g>
	<defs>
		<path id="SVGID_1_" d="M57.1,104.2c-40,0-72.5-32.5-72.5-72.5c0-40,32.5-72.5,72.5-72.5c40,0,72.5,32.5,72.5,72.5
			C129.6,71.7,97.1,104.2,57.1,104.2z"/>
	</defs>
	<clipPath id="SVGID_2_">
		<use xlink:href="#SVGID_1_"  style="overflow:visible;"/>
	</clipPath>
	<path class="st0" d="M109.1,101.5c-1.2-1-15.9,1.2-16.9-4.5c-2-12.1-1.8-16.8-3.5-33.9c-0.7-7.1,1.5-9.5,3.4-10.7
		c3.9-2.5,6.4-6.2,8-11c5.4-16.3-6.6-59.4-6.6-59.4s-4.9-0.1-15,0.8c-10.1,0.9-15,2.2-15,2.2s-3.3,44.6,5.3,59.6
		c2.5,4.3,5.7,7.5,10,9.2c2.1,0.8,4.7,2.7,5.4,9.8c1.7,17.1,2.8,21.7,3.2,33.9c0.2,5.7-15.5,6.6-16.5,7.8c-0.6,0.7-0.3,1.8,0.2,2.3
		c0.6,0.5,8.2-1.1,19.5-2.3c11.3-1.1,18.3-1,18.8-1.6C109.8,103.3,109.8,102.1,109.1,101.5z M83.8,16.5c-6.1-0.1-11.6-0.5-17.5-1.9
		C65.5,3.1,65.8-4.8,65.9-13c6.4-1.2,18.3-2.3,25.4-2.5c1.6,5.4,4.8,18.7,6,31.5C93.5,16.1,87.9,16.6,83.8,16.5z M37.3,55.2
		c4.3-1.8,7.5-5.1,9.8-9.6C55.4,30.3,51-14.9,51-14.9s-8.5-1.1-15.6-1.7c-7-0.5-15-0.6-15-0.6s-11,44-5.1,60.4
		c1.7,4.7,4.3,8.5,8.3,10.9c1.9,1.2,4.2,3.5,3.7,10.7c-1.3,17.4-1,22.1-2.7,34.4c-0.8,5.8-16.6,3.9-17.8,4.9
		c-0.7,0.6-0.6,1.8-0.2,2.4c0.5,0.6,8.4,0.3,19.9,1.2c11.5,0.9,18.5,2.2,19,1.7c0.6-0.5,0.8-1.7,0.2-2.4c-1-1.2-16.1-1.6-16.1-7.4
		c0.1-12.4,1.1-17.1,2.4-34.4C32.6,58.1,35.2,56,37.3,55.2z M18.3,14.8c0.9-10.5,3-22.4,4.5-29c7.8,0,16.6,0.7,25.3,1.8
		c0.6,9.2,0.7,14.8,0.3,25.3c-3.4,0.8-8.9,1.1-13.3,1.4C29.6,14.7,23.8,14.9,18.3,14.8z"/>
</g>
</svg>
