<?xml version="1.0" encoding="utf-8"?>
<!-- Generator: Adobe Illustrator 19.1.0, SVG Export Plug-In . SVG Version: 6.00 Build 0)  -->
<!DOCTYPE svg PUBLIC "-//W3C//DTD SVG 1.1//EN" "http://www.w3.org/Graphics/SVG/1.1/DTD/svg11.dtd">
<svg version="1.1" id="Layer_1" xmlns="http://www.w3.org/2000/svg" xmlns:xlink="http://www.w3.org/1999/xlink" x="0px" y="0px"
	 viewBox="-343 258.9 96 96.1" style="enable-background:new -343 258.9 96 96.1;" xml:space="preserve">
<style type="text/css">
	.st0{fill:#FFED20;}
</style>
<g>
	<path class="st0" d="M-295,354.9c-26.5,0-48-21.5-48-48s21.5-48,48-48s48,21.5,48,48S-268.5,354.9-295,354.9z M-295,262.9
		c-24.3,0-44,19.7-44,44s19.7,44,44,44s44-19.7,44-44S-270.7,262.9-295,262.9z"/>
</g>
<g>
	<path class="st0" d="M-295,291.6c-1.1,0-2-0.9-2-2v-6c0-1.1,0.9-2,2-2s2,0.9,2,2v6C-293,290.7-293.9,291.6-295,291.6z"/>
</g>
<g>
	<path class="st0" d="M-307.6,297c-0.5,0-1-0.2-1.4-0.6l-4.2-4.2c-0.8-0.8-0.8-2,0-2.8c0.8-0.8,2-0.8,2.8,0l4.2,4.2
		c0.8,0.8,0.8,2,0,2.8C-306.6,296.8-307.1,297-307.6,297z"/>
</g>
<g>
	<path class="st0" d="M-282.4,296.7c-0.5,0-1-0.2-1.4-0.6c-0.8-0.8-0.8-2,0-2.8l4.2-4.2c0.8-0.8,2-0.8,2.8,0s0.8,2,0,2.8l-4.2,4.2
		C-281.4,296.5-281.9,296.7-282.4,296.7z"/>
</g>
<path class="st0" d="M-295,258.9c-26.5,0-48,21.5-48,48c0,11,3.7,21.1,9.9,29.2l0.3,0.4c2.5,3.2,5.4,6.1,8.6,8.5l0.9,0.7
	c7.9,5.8,17.7,9.3,28.3,9.3s20.4-3.4,28.3-9.3l0.9-0.7c3.2-2.5,6.1-5.3,8.6-8.5l0.3-0.4c6.2-8.1,9.9-18.2,9.9-29.2
	C-247,280.4-268.5,258.9-295,258.9z M-295,262.9c23.6,0,42.9,18.7,44,42h-30.3c-0.9-6.7-6.7-11.9-13.7-11.9s-12.8,5.2-13.7,11.9
	H-339C-337.9,281.6-318.6,262.9-295,262.9z M-304.6,304.8c0.9-4.5,4.9-7.8,9.6-7.8s8.7,3.4,9.6,7.8H-304.6z M-295,350.9
	c-7.5,0-14.6-1.9-20.8-5.3h41.7C-280.4,349-287.5,350.9-295,350.9z M-268,341.6h-54c-2-1.6-3.9-3.3-5.6-5.2h65.1
	C-264.1,338.3-266,340.1-268,341.6z M-259.2,332.5h-71.6c-1.2-1.6-2.2-3.4-3.2-5.2h78C-257,329.1-258,330.8-259.2,332.5z
	 M-254.2,323.3h-81.7c-0.7-1.7-1.3-3.4-1.7-5.2h85.1C-252.9,319.9-253.5,321.6-254.2,323.3z M-251.6,314.1h-86.8
	c-0.3-1.7-0.5-3.4-0.5-5.2h87.9C-251.1,310.7-251.3,312.4-251.6,314.1z"/>
</svg>
