<?xml version="1.0" encoding="utf-8"?>
<!-- Generator: Adobe Illustrator 19.1.0, SVG Export Plug-In . SVG Version: 6.00 Build 0)  -->
<!DOCTYPE svg PUBLIC "-//W3C//DTD SVG 1.1//EN" "http://www.w3.org/Graphics/SVG/1.1/DTD/svg11.dtd">
<svg version="1.1" id="Layer_1" xmlns="http://www.w3.org/2000/svg" xmlns:xlink="http://www.w3.org/1999/xlink" x="0px" y="0px"
	 viewBox="-253 349 96 96" style="enable-background:new -253 349 96 96;" xml:space="preserve">
<style type="text/css">
	.st0{fill:#0276EE;}
</style>
<g>
	<path class="st0" d="M-205,445c-26.5,0-48-21.5-48-48c0-26.5,21.5-48,48-48c26.5,0,48,21.5,48,48C-157,423.5-178.5,445-205,445z
		 M-205,353c-24.3,0-44,19.7-44,44c0,24.3,19.7,44,44,44c24.3,0,44-19.7,44-44C-161,372.7-180.7,353-205,353z"/>
</g>
<g>
	<path class="st0" d="M-205,381.7c-1.1,0-2-0.9-2-2v-6c0-1.1,0.9-2,2-2s2,0.9,2,2v6C-203,380.8-203.9,381.7-205,381.7z"/>
</g>
<g>
	<path class="st0" d="M-217.6,387.1c-0.5,0-1-0.2-1.4-0.6l-4.2-4.2c-0.8-0.8-0.8-2,0-2.8c0.8-0.8,2-0.8,2.8,0l4.2,4.2
		c0.8,0.8,0.8,2,0,2.8C-216.6,386.9-217.1,387.1-217.6,387.1z"/>
</g>
<g>
	<path class="st0" d="M-192.4,386.8c-0.5,0-1-0.2-1.4-0.6c-0.8-0.8-0.8-2,0-2.8l4.2-4.2c0.8-0.8,2-0.8,2.8,0s0.8,2,0,2.8l-4.2,4.2
		C-191.4,386.6-191.9,386.8-192.4,386.8z"/>
</g>
<path class="st0" d="M-205,349c-26.5,0-48,21.5-48,48c0,11,3.7,21.1,9.9,29.2l0.3,0.4c2.5,3.2,5.4,6.1,8.6,8.5l0.9,0.7
	c7.9,5.8,17.7,9.3,28.3,9.3s20.4-3.4,28.3-9.3l0.9-0.7c3.2-2.5,6.1-5.3,8.6-8.5l0.3-0.4c6.2-8.1,9.9-18.2,9.9-29.2
	C-157,370.5-178.5,349-205,349z M-205,353c23.6,0,42.9,18.7,44,42h-30.3c-0.9-6.7-6.7-11.9-13.7-11.9c-7,0-12.8,5.2-13.7,11.9h-30.3
	C-247.9,371.7-228.6,353-205,353z M-214.6,394.9c0.9-4.5,4.9-7.8,9.6-7.8s8.7,3.4,9.6,7.8L-214.6,394.9z M-205,441
	c-7.5,0-14.6-1.9-20.8-5.3h41.7C-190.4,439.1-197.5,441-205,441z M-178,431.7H-232c-2-1.6-3.9-3.3-5.6-5.2h65.1
	C-174.1,428.4-176,430.2-178,431.7z M-169.2,422.6h-71.6c-1.2-1.6-2.2-3.4-3.2-5.2h78C-167,419.2-168,420.9-169.2,422.6z
	 M-164.2,413.4h-81.7c-0.7-1.7-1.3-3.4-1.7-5.2h85.1C-162.9,410-163.5,411.7-164.2,413.4z M-161.6,404.2h-86.8
	c-0.3-1.7-0.5-3.4-0.5-5.2h87.9C-161.1,400.8-161.3,402.5-161.6,404.2z"/>
</svg>
