<?xml version="1.0" encoding="utf-8"?>
<!-- Generator: Adobe Illustrator 19.1.0, SVG Export Plug-In . SVG Version: 6.00 Build 0)  -->
<!DOCTYPE svg PUBLIC "-//W3C//DTD SVG 1.1//EN" "http://www.w3.org/Graphics/SVG/1.1/DTD/svg11.dtd">
<svg version="1.1" id="Isolation_Mode" xmlns="http://www.w3.org/2000/svg" xmlns:xlink="http://www.w3.org/1999/xlink" x="0px"
	 y="0px" viewBox="-365 276.5 60.4 60.4" style="enable-background:new -365 276.5 60.4 60.4;" xml:space="preserve">
<style type="text/css">
	.st0{fill:#FDEB1B;}
</style>
<g>
	<path class="st0" d="M-321.5,288.8c0.3-0.2,0.4-0.5,0.4-1c0-0.4-0.1-0.8-0.4-1c-0.3-0.2-0.7-0.3-1.1-0.3h-1.6v2.6h1.6
		C-322.2,289.1-321.8,289-321.5,288.8z"/>
	<path class="st0" d="M-326.1,300.5c-1.6,0-2.4,0.9-2.4,2.9v17.1c0,2,0.9,2.9,2.4,2.9c1.6,0,2.4-0.9,2.4-2.9v-17.1
		C-323.6,301.4-324.5,300.5-326.1,300.5z"/>
	<path class="st0" d="M-334.8,276.5c-16.7,0-30.2,13.5-30.2,30.2c0,16.7,13.5,30.2,30.2,30.2s30.2-13.5,30.2-30.2
		C-304.6,290-318.1,276.5-334.8,276.5z M-325.1,285.7h2.3c0.4,0,0.7,0,1,0.1c0.3,0.1,0.6,0.2,0.9,0.4c0.3,0.2,0.5,0.4,0.6,0.7
		c0.2,0.3,0.2,0.6,0.2,1c0,0.4-0.1,0.8-0.2,1.1c-0.2,0.3-0.4,0.5-0.6,0.7c-0.3,0.2-0.5,0.3-0.8,0.3s-0.6,0.1-0.9,0.1h-1.6v3.5h-0.9
		V285.7z M-349.5,285.7h6.1v0.9h-2.6v6.9h-0.9v-6.9h-2.6V285.7z M-336.4,322.8v4.3h-14.5V323c6.5-9.4,10-14.7,10-19.1
		c0-2.4-0.9-3.4-2.4-3.4c-1.7,0-2.5,1.3-2.5,3.1v2.1h-5v-1.4c0-4.5,2.9-7.9,7.7-7.9c4.3,0,7.1,3.2,7.1,6.7c0,4.8-1.5,8.3-9.7,19.7
		H-336.4z M-336.3,293.4c-0.5-0.2-0.9-0.5-1.3-0.9c-0.4-0.4-0.6-0.8-0.8-1.3c-0.2-0.5-0.3-1-0.3-1.6c0-0.6,0.1-1.1,0.3-1.6
		c0.2-0.5,0.5-0.9,0.8-1.3c0.4-0.4,0.8-0.6,1.3-0.9c0.5-0.2,1-0.3,1.6-0.3c0.6,0,1.1,0.1,1.6,0.3c0.5,0.2,0.9,0.5,1.3,0.9
		c0.4,0.4,0.6,0.8,0.8,1.3c0.2,0.5,0.3,1,0.3,1.6c0,0.6-0.1,1.1-0.3,1.6c-0.2,0.5-0.5,0.9-0.8,1.3c-0.4,0.4-0.8,0.6-1.3,0.9
		c-0.5,0.2-1,0.3-1.6,0.3C-335.3,293.7-335.8,293.6-336.3,293.4z M-318.7,319.2c0,5.7-2.2,8.3-7.4,8.3c-5.2,0-7.4-2.6-7.4-8.3v-14.5
		c0-5.7,2.2-8.3,7.4-8.3c5.2,0,7.4,2.6,7.4,8.3V319.2z"/>
	<path class="st0" d="M-331.9,290.9c0.2-0.4,0.2-0.8,0.2-1.3c0-0.4-0.1-0.9-0.2-1.3c-0.2-0.4-0.4-0.7-0.6-1c-0.3-0.3-0.6-0.5-1-0.7
		c-0.4-0.2-0.8-0.3-1.2-0.3c-0.5,0-0.9,0.1-1.2,0.3c-0.4,0.2-0.7,0.4-1,0.7c-0.3,0.3-0.5,0.6-0.6,1c-0.2,0.4-0.2,0.8-0.2,1.3
		c0,0.4,0.1,0.9,0.2,1.3c0.2,0.4,0.4,0.7,0.6,1c0.3,0.3,0.6,0.5,1,0.7c0.4,0.2,0.8,0.3,1.2,0.3c0.5,0,0.9-0.1,1.2-0.3
		c0.4-0.2,0.7-0.4,1-0.7C-332.2,291.6-332,291.3-331.9,290.9z"/>
</g>
</svg>
